<svg width="200" height="200" viewBox="0 0 200 200" fill="none" xmlns="http://www.w3.org/2000/svg">
  <circle cx="100" cy="100" r="95" fill="url(#gradienteFundo)" stroke="#A5D6A7" stroke-width="4"/>
  <circle cx="100" cy="100" r="70" fill="#42A5F5" stroke="#1E88E5" stroke-width="2"/>
  <path d="M100 25L120 75H175L135 110L150 165L100 135L50 165L65 110L25 75H80L100 25Z" fill="#F57F17" transform="translate(4, 4)"/>
  <path d="M100 25L120 75H175L135 110L150 165L100 135L50 165L65 110L25 75H80L100 25Z" fill="#FFEB3B" stroke="#FBC02D" stroke-width="3" stroke-linejoin="round"/>
  <ellipse cx="140" cy="50" rx="30" ry="20" fill="white" fill-opacity="0.4" transform="rotate(-45 140 50)"/>
  <defs>
    <linearGradient id="gradienteFundo" x1="100" y1="0" x2="100" y2="200" gradientUnits="userSpaceOnUse">
      <stop stop-color="#E8F5E9"/>
      <stop offset="1" stop-color="#C8E6C9"/>
    </linearGradient>
  </defs>
</svg>